<?xml version="1.0" encoding="UTF-8"?>
<!DOCTYPE svg PUBLIC "-//W3C//DTD SVG 1.1//EN" "http://www.w3.org/Graphics/SVG/1.1/DTD/svg11.dtd">
<svg xmlns="http://www.w3.org/2000/svg" version="1.1" width="256px" height="256px" style="shape-rendering:geometricPrecision; text-rendering:geometricPrecision; image-rendering:optimizeQuality; fill-rule:evenodd; clip-rule:evenodd" xmlns:xlink="http://www.w3.org/1999/xlink">
<g><path style="opacity:1" fill="#0a001b" d="M 63.5,47.5 C 60.8333,47.5 58.1667,47.5 55.5,47.5C 52.8333,47.5 50.1667,47.5 47.5,47.5C 47.5,44.8333 47.5,42.1667 47.5,39.5C 52.8333,39.5 58.1667,39.5 63.5,39.5C 63.5,42.1667 63.5,44.8333 63.5,47.5 Z"/></g>
<g><path style="opacity:1" fill="#0a001b" d="M 79.5,47.5 C 76.8333,47.5 74.1667,47.5 71.5,47.5C 71.5,44.8333 71.5,42.1667 71.5,39.5C 74.1667,39.5 76.8333,39.5 79.5,39.5C 79.5,42.1667 79.5,44.8333 79.5,47.5 Z"/></g>
<g><path style="opacity:1" fill="#0a001b" d="M 47.5,47.5 C 47.5,50.1667 47.5,52.8333 47.5,55.5C 44.8333,55.5 42.1667,55.5 39.5,55.5C 39.5,52.8333 39.5,50.1667 39.5,47.5C 42.1667,47.5 44.8333,47.5 47.5,47.5 Z"/></g>
<g><path style="opacity:1" fill="#084f64" d="M 47.5,47.5 C 50.1667,47.5 52.8333,47.5 55.5,47.5C 55.5,50.1667 55.5,52.8333 55.5,55.5C 58.1667,55.5 60.8333,55.5 63.5,55.5C 63.5,58.1667 63.5,60.8333 63.5,63.5C 58.1667,63.5 52.8333,63.5 47.5,63.5C 47.5,60.8333 47.5,58.1667 47.5,55.5C 47.5,52.8333 47.5,50.1667 47.5,47.5 Z"/></g>
<g><path style="opacity:1" fill="#53ebe3" d="M 55.5,47.5 C 58.1667,47.5 60.8333,47.5 63.5,47.5C 63.5,50.1667 63.5,52.8333 63.5,55.5C 60.8333,55.5 58.1667,55.5 55.5,55.5C 55.5,52.8333 55.5,50.1667 55.5,47.5 Z"/></g>
<g><path style="opacity:1" fill="#0a001b" d="M 63.5,47.5 C 66.1667,47.5 68.8333,47.5 71.5,47.5C 71.5,50.1667 71.5,52.8333 71.5,55.5C 68.8333,55.5 66.1667,55.5 63.5,55.5C 63.5,52.8333 63.5,50.1667 63.5,47.5 Z"/></g>
<g><path style="opacity:1" fill="#0f9594" d="M 71.5,47.5 C 74.1667,47.5 76.8333,47.5 79.5,47.5C 79.5,55.5 79.5,63.5 79.5,71.5C 84.8333,71.5 90.1667,71.5 95.5,71.5C 95.5,74.1667 95.5,76.8333 95.5,79.5C 92.8333,79.5 90.1667,79.5 87.5,79.5C 87.5,82.1667 87.5,84.8333 87.5,87.5C 90.1667,87.5 92.8333,87.5 95.5,87.5C 95.5,92.8333 95.5,98.1667 95.5,103.5C 95.5,106.167 95.5,108.833 95.5,111.5C 92.8333,111.5 90.1667,111.5 87.5,111.5C 87.5,106.167 87.5,100.833 87.5,95.5C 84.8333,95.5 82.1667,95.5 79.5,95.5C 79.5,92.8333 79.5,90.1667 79.5,87.5C 74.1667,87.5 68.8333,87.5 63.5,87.5C 63.5,84.8333 63.5,82.1667 63.5,79.5C 66.1667,79.5 68.8333,79.5 71.5,79.5C 71.5,74.1667 71.5,68.8333 71.5,63.5C 71.5,60.8333 71.5,58.1667 71.5,55.5C 71.5,52.8333 71.5,50.1667 71.5,47.5 Z"/></g>
<g><path style="opacity:1" fill="#0a001b" d="M 79.5,47.5 C 82.1667,47.5 84.8333,47.5 87.5,47.5C 87.5,52.8333 87.5,58.1667 87.5,63.5C 90.1667,63.5 92.8333,63.5 95.5,63.5C 95.5,66.1667 95.5,68.8333 95.5,71.5C 90.1667,71.5 84.8333,71.5 79.5,71.5C 79.5,63.5 79.5,55.5 79.5,47.5 Z"/></g>
<g><path style="opacity:1" fill="#0a001b" d="M 39.5,55.5 C 39.5,58.1667 39.5,60.8333 39.5,63.5C 36.8333,63.5 34.1667,63.5 31.5,63.5C 31.5,60.8333 31.5,58.1667 31.5,55.5C 34.1667,55.5 36.8333,55.5 39.5,55.5 Z"/></g>
<g><path style="opacity:1" fill="#0f9594" d="M 39.5,55.5 C 42.1667,55.5 44.8333,55.5 47.5,55.5C 47.5,58.1667 47.5,60.8333 47.5,63.5C 44.8333,63.5 42.1667,63.5 39.5,63.5C 39.5,60.8333 39.5,58.1667 39.5,55.5 Z"/></g>
<g><path style="opacity:1" fill="#53ebe3" d="M 63.5,55.5 C 66.1667,55.5 68.8333,55.5 71.5,55.5C 71.5,58.1667 71.5,60.8333 71.5,63.5C 68.8333,63.5 66.1667,63.5 63.5,63.5C 63.5,60.8333 63.5,58.1667 63.5,55.5 Z"/></g>
<g><path style="opacity:1" fill="#0a001b" d="M 39.5,63.5 C 42.1667,63.5 44.8333,63.5 47.5,63.5C 47.5,66.1667 47.5,68.8333 47.5,71.5C 44.8333,71.5 42.1667,71.5 39.5,71.5C 39.5,68.8333 39.5,66.1667 39.5,63.5 Z"/></g>
<g><path style="opacity:1" fill="#0f9594" d="M 47.5,63.5 C 52.8333,63.5 58.1667,63.5 63.5,63.5C 63.5,66.1667 63.5,68.8333 63.5,71.5C 60.8333,71.5 58.1667,71.5 55.5,71.5C 52.8333,71.5 50.1667,71.5 47.5,71.5C 47.5,68.8333 47.5,66.1667 47.5,63.5 Z"/></g>
<g><path style="opacity:1" fill="#084f64" d="M 63.5,63.5 C 66.1667,63.5 68.8333,63.5 71.5,63.5C 71.5,68.8333 71.5,74.1667 71.5,79.5C 68.8333,79.5 66.1667,79.5 63.5,79.5C 63.5,82.1667 63.5,84.8333 63.5,87.5C 58.1667,87.5 52.8333,87.5 47.5,87.5C 47.5,84.8333 47.5,82.1667 47.5,79.5C 50.1667,79.5 52.8333,79.5 55.5,79.5C 55.5,76.8333 55.5,74.1667 55.5,71.5C 58.1667,71.5 60.8333,71.5 63.5,71.5C 63.5,68.8333 63.5,66.1667 63.5,63.5 Z"/></g>
<g><path style="opacity:1" fill="#0a001b" d="M 47.5,71.5 C 50.1667,71.5 52.8333,71.5 55.5,71.5C 55.5,74.1667 55.5,76.8333 55.5,79.5C 52.8333,79.5 50.1667,79.5 47.5,79.5C 47.5,76.8333 47.5,74.1667 47.5,71.5 Z"/></g>
<g><path style="opacity:1" fill="#0a001b" d="M 95.5,71.5 C 124.833,71.5 154.167,71.5 183.5,71.5C 183.5,74.1667 183.5,76.8333 183.5,79.5C 156.833,79.5 130.167,79.5 103.5,79.5C 100.833,79.5 98.1667,79.5 95.5,79.5C 95.5,76.8333 95.5,74.1667 95.5,71.5 Z"/></g>
<g><path style="opacity:1" fill="#0a001b" d="M 47.5,79.5 C 47.5,82.1667 47.5,84.8333 47.5,87.5C 47.5,90.1667 47.5,92.8333 47.5,95.5C 44.8333,95.5 42.1667,95.5 39.5,95.5C 39.5,90.1667 39.5,84.8333 39.5,79.5C 42.1667,79.5 44.8333,79.5 47.5,79.5 Z"/></g>
<g><path style="opacity:1" fill="#eba6bf" d="M 95.5,79.5 C 98.1667,79.5 100.833,79.5 103.5,79.5C 103.5,82.1667 103.5,84.8333 103.5,87.5C 106.167,87.5 108.833,87.5 111.5,87.5C 111.5,92.8333 111.5,98.1667 111.5,103.5C 108.833,103.5 106.167,103.5 103.5,103.5C 100.833,103.5 98.1667,103.5 95.5,103.5C 95.5,98.1667 95.5,92.8333 95.5,87.5C 92.8333,87.5 90.1667,87.5 87.5,87.5C 87.5,84.8333 87.5,82.1667 87.5,79.5C 90.1667,79.5 92.8333,79.5 95.5,79.5 Z"/></g>
<g><path style="opacity:1" fill="#c2145a" d="M 103.5,79.5 C 130.167,79.5 156.833,79.5 183.5,79.5C 183.5,82.1667 183.5,84.8333 183.5,87.5C 191.5,87.5 199.5,87.5 207.5,87.5C 207.5,90.1667 207.5,92.8333 207.5,95.5C 210.167,95.5 212.833,95.5 215.5,95.5C 215.5,111.5 215.5,127.5 215.5,143.5C 212.833,143.5 210.167,143.5 207.5,143.5C 202.167,143.5 196.833,143.5 191.5,143.5C 188.833,143.5 186.167,143.5 183.5,143.5C 183.5,146.167 183.5,148.833 183.5,151.5C 175.5,151.5 167.5,151.5 159.5,151.5C 156.833,151.5 154.167,151.5 151.5,151.5C 151.5,148.833 151.5,146.167 151.5,143.5C 148.833,143.5 146.167,143.5 143.5,143.5C 143.5,146.167 143.5,148.833 143.5,151.5C 119.5,151.5 95.5,151.5 71.5,151.5C 71.5,148.833 71.5,146.167 71.5,143.5C 63.5,143.5 55.5,143.5 47.5,143.5C 44.8333,143.5 42.1667,143.5 39.5,143.5C 39.5,138.167 39.5,132.833 39.5,127.5C 42.1667,127.5 44.8333,127.5 47.5,127.5C 47.5,124.833 47.5,122.167 47.5,119.5C 44.8333,119.5 42.1667,119.5 39.5,119.5C 39.5,111.5 39.5,103.5 39.5,95.5C 42.1667,95.5 44.8333,95.5 47.5,95.5C 47.5,92.8333 47.5,90.1667 47.5,87.5C 52.8333,87.5 58.1667,87.5 63.5,87.5C 68.8333,87.5 74.1667,87.5 79.5,87.5C 79.5,90.1667 79.5,92.8333 79.5,95.5C 82.1667,95.5 84.8333,95.5 87.5,95.5C 87.5,100.833 87.5,106.167 87.5,111.5C 87.5,119.5 87.5,127.5 87.5,135.5C 90.1667,135.5 92.8333,135.5 95.5,135.5C 95.5,127.5 95.5,119.5 95.5,111.5C 98.1667,111.5 100.833,111.5 103.5,111.5C 103.5,108.833 103.5,106.167 103.5,103.5C 106.167,103.5 108.833,103.5 111.5,103.5C 114.167,103.5 116.833,103.5 119.5,103.5C 119.5,98.1667 119.5,92.8333 119.5,87.5C 116.833,87.5 114.167,87.5 111.5,87.5C 108.833,87.5 106.167,87.5 103.5,87.5C 103.5,84.8333 103.5,82.1667 103.5,79.5 Z"/></g>
<g><path style="opacity:1" fill="#0a001b" d="M 183.5,79.5 C 191.5,79.5 199.5,79.5 207.5,79.5C 207.5,82.1667 207.5,84.8333 207.5,87.5C 199.5,87.5 191.5,87.5 183.5,87.5C 183.5,84.8333 183.5,82.1667 183.5,79.5 Z"/></g>
<g><path style="opacity:1" fill="#e03a69" d="M 111.5,87.5 C 114.167,87.5 116.833,87.5 119.5,87.5C 119.5,92.8333 119.5,98.1667 119.5,103.5C 116.833,103.5 114.167,103.5 111.5,103.5C 111.5,98.1667 111.5,92.8333 111.5,87.5 Z"/></g>
<g><path style="opacity:1" fill="#0a001b" d="M 207.5,87.5 C 210.167,87.5 212.833,87.5 215.5,87.5C 215.5,90.1667 215.5,92.8333 215.5,95.5C 215.5,92.8333 215.5,90.1667 215.5,87.5C 212.833,87.5 210.167,87.5 207.5,87.5 Z"/></g>
<g><path style="opacity:1" fill="#0a001b" d="M 39.5,95.5 C 39.5,103.5 39.5,111.5 39.5,119.5C 39.5,122.167 39.5,124.833 39.5,127.5C 39.5,132.833 39.5,138.167 39.5,143.5C 39.5,154.167 39.5,164.833 39.5,175.5C 39.5,178.167 39.5,180.833 39.5,183.5C 39.5,186.167 39.5,188.833 39.5,191.5C 39.5,202.167 39.5,212.833 39.5,223.5C 36.8333,223.5 34.1667,223.5 31.5,223.5C 31.5,180.833 31.5,138.167 31.5,95.5C 34.1667,95.5 36.8333,95.5 39.5,95.5 Z"/></g>
<g><path style="opacity:1" fill="#4c004f" d="M 55.5,95.5 C 58.1667,95.5 60.8333,95.5 63.5,95.5C 63.5,98.1667 63.5,100.833 63.5,103.5C 60.8333,103.5 58.1667,103.5 55.5,103.5C 55.5,100.833 55.5,98.1667 55.5,95.5 Z"/></g>
<g><path style="opacity:1" fill="#4c004f" d="M 159.5,95.5 C 164.833,95.5 170.167,95.5 175.5,95.5C 175.5,98.1667 175.5,100.833 175.5,103.5C 170.167,103.5 164.833,103.5 159.5,103.5C 159.5,100.833 159.5,98.1667 159.5,95.5 Z"/></g>
<g><path style="opacity:1" fill="#0a001b" d="M 215.5,95.5 C 218.167,95.5 220.833,95.5 223.5,95.5C 223.5,140.833 223.5,186.167 223.5,231.5C 220.833,231.5 218.167,231.5 215.5,231.5C 215.5,215.5 215.5,199.5 215.5,183.5C 215.5,180.833 215.5,178.167 215.5,175.5C 215.5,164.833 215.5,154.167 215.5,143.5C 215.5,127.5 215.5,111.5 215.5,95.5 Z"/></g>
<g><path style="opacity:1" fill="#4c004f" d="M 95.5,103.5 C 98.1667,103.5 100.833,103.5 103.5,103.5C 103.5,106.167 103.5,108.833 103.5,111.5C 100.833,111.5 98.1667,111.5 95.5,111.5C 95.5,108.833 95.5,106.167 95.5,103.5 Z"/></g>
<g><path style="opacity:1" fill="#4c004f" d="M 127.5,103.5 C 132.833,103.5 138.167,103.5 143.5,103.5C 143.5,106.167 143.5,108.833 143.5,111.5C 138.167,111.5 132.833,111.5 127.5,111.5C 127.5,108.833 127.5,106.167 127.5,103.5 Z"/></g>
<g><path style="opacity:1" fill="#4c004f" d="M 71.5,111.5 C 74.1667,111.5 76.8333,111.5 79.5,111.5C 79.5,114.167 79.5,116.833 79.5,119.5C 76.8333,119.5 74.1667,119.5 71.5,119.5C 71.5,116.833 71.5,114.167 71.5,111.5 Z"/></g>
<g><path style="opacity:1" fill="#4c004f" d="M 87.5,111.5 C 90.1667,111.5 92.8333,111.5 95.5,111.5C 95.5,119.5 95.5,127.5 95.5,135.5C 92.8333,135.5 90.1667,135.5 87.5,135.5C 87.5,127.5 87.5,119.5 87.5,111.5 Z"/></g>
<g><path style="opacity:1" fill="#ebc8d5" d="M 175.5,119.5 C 170.167,119.5 164.833,119.5 159.5,119.5C 159.5,116.833 159.5,114.167 159.5,111.5C 164.833,111.5 170.167,111.5 175.5,111.5C 175.5,114.167 175.5,116.833 175.5,119.5 Z"/></g>
<g><path style="opacity:1" fill="#4c004f" d="M 39.5,119.5 C 42.1667,119.5 44.8333,119.5 47.5,119.5C 47.5,122.167 47.5,124.833 47.5,127.5C 44.8333,127.5 42.1667,127.5 39.5,127.5C 39.5,124.833 39.5,122.167 39.5,119.5 Z"/></g>
<g><path style="opacity:1" fill="#4c004f" d="M 119.5,119.5 C 122.167,119.5 124.833,119.5 127.5,119.5C 127.5,122.167 127.5,124.833 127.5,127.5C 124.833,127.5 122.167,127.5 119.5,127.5C 119.5,124.833 119.5,122.167 119.5,119.5 Z"/></g>
<g><path style="opacity:1" fill="#ebc8d5" d="M 159.5,119.5 C 159.5,122.167 159.5,124.833 159.5,127.5C 156.833,127.5 154.167,127.5 151.5,127.5C 151.5,124.833 151.5,122.167 151.5,119.5C 154.167,119.5 156.833,119.5 159.5,119.5 Z"/></g>
<g><path style="opacity:1" fill="#03264c" d="M 159.5,119.5 C 164.833,119.5 170.167,119.5 175.5,119.5C 175.5,122.167 175.5,124.833 175.5,127.5C 172.833,127.5 170.167,127.5 167.5,127.5C 164.833,127.5 162.167,127.5 159.5,127.5C 159.5,124.833 159.5,122.167 159.5,119.5 Z"/></g>
<g><path style="opacity:1" fill="#ebc8d5" d="M 175.5,119.5 C 178.167,119.5 180.833,119.5 183.5,119.5C 183.5,122.167 183.5,124.833 183.5,127.5C 180.833,127.5 178.167,127.5 175.5,127.5C 175.5,124.833 175.5,122.167 175.5,119.5 Z"/></g>
<g><path style="opacity:1" fill="#4c004f" d="M 55.5,127.5 C 60.8333,127.5 66.1667,127.5 71.5,127.5C 71.5,130.167 71.5,132.833 71.5,135.5C 66.1667,135.5 60.8333,135.5 55.5,135.5C 55.5,132.833 55.5,130.167 55.5,127.5 Z"/></g>
<g><path style="opacity:1" fill="#4c004f" d="M 151.5,127.5 C 154.167,127.5 156.833,127.5 159.5,127.5C 162.167,127.5 164.833,127.5 167.5,127.5C 167.5,130.167 167.5,132.833 167.5,135.5C 162.167,135.5 156.833,135.5 151.5,135.5C 151.5,132.833 151.5,130.167 151.5,127.5 Z"/></g>
<g><path style="opacity:1" fill="#e03a69" d="M 167.5,127.5 C 170.167,127.5 172.833,127.5 175.5,127.5C 178.167,127.5 180.833,127.5 183.5,127.5C 183.5,130.167 183.5,132.833 183.5,135.5C 178.167,135.5 172.833,135.5 167.5,135.5C 167.5,132.833 167.5,130.167 167.5,127.5 Z"/></g>
<g><path style="opacity:1" fill="#4c004f" d="M 103.5,135.5 C 108.833,135.5 114.167,135.5 119.5,135.5C 119.5,138.167 119.5,140.833 119.5,143.5C 114.167,143.5 108.833,143.5 103.5,143.5C 103.5,140.833 103.5,138.167 103.5,135.5 Z"/></g>
<g><path style="opacity:1" fill="#4c004f" d="M 143.5,143.5 C 140.833,143.5 138.167,143.5 135.5,143.5C 135.5,140.833 135.5,138.167 135.5,135.5C 138.167,135.5 140.833,135.5 143.5,135.5C 143.5,138.167 143.5,140.833 143.5,143.5 Z"/></g>
<g><path style="opacity:1" fill="#4c004f" d="M 167.5,135.5 C 172.833,135.5 178.167,135.5 183.5,135.5C 183.5,138.167 183.5,140.833 183.5,143.5C 178.167,143.5 172.833,143.5 167.5,143.5C 167.5,140.833 167.5,138.167 167.5,135.5 Z"/></g>
<g><path style="opacity:1" fill="#e36a86" d="M 39.5,143.5 C 42.1667,143.5 44.8333,143.5 47.5,143.5C 47.5,146.167 47.5,148.833 47.5,151.5C 55.5,151.5 63.5,151.5 71.5,151.5C 71.5,154.167 71.5,156.833 71.5,159.5C 98.1667,159.5 124.833,159.5 151.5,159.5C 151.5,162.167 151.5,164.833 151.5,167.5C 154.167,167.5 156.833,167.5 159.5,167.5C 159.5,164.833 159.5,162.167 159.5,159.5C 167.5,159.5 175.5,159.5 183.5,159.5C 183.5,162.167 183.5,164.833 183.5,167.5C 186.167,167.5 188.833,167.5 191.5,167.5C 191.5,162.167 191.5,156.833 191.5,151.5C 196.833,151.5 202.167,151.5 207.5,151.5C 207.5,148.833 207.5,146.167 207.5,143.5C 210.167,143.5 212.833,143.5 215.5,143.5C 215.5,154.167 215.5,164.833 215.5,175.5C 212.833,175.5 210.167,175.5 207.5,175.5C 207.5,178.167 207.5,180.833 207.5,183.5C 202.167,183.5 196.833,183.5 191.5,183.5C 188.833,183.5 186.167,183.5 183.5,183.5C 183.5,186.167 183.5,188.833 183.5,191.5C 180.833,191.5 178.167,191.5 175.5,191.5C 164.833,191.5 154.167,191.5 143.5,191.5C 143.5,188.833 143.5,186.167 143.5,183.5C 138.167,183.5 132.833,183.5 127.5,183.5C 127.5,186.167 127.5,188.833 127.5,191.5C 111.5,191.5 95.5,191.5 79.5,191.5C 79.5,188.833 79.5,186.167 79.5,183.5C 74.1667,183.5 68.8333,183.5 63.5,183.5C 63.5,180.833 63.5,178.167 63.5,175.5C 55.5,175.5 47.5,175.5 39.5,175.5C 39.5,164.833 39.5,154.167 39.5,143.5 Z"/></g>
<g><path style="opacity:1" fill="#e03a69" d="M 47.5,143.5 C 55.5,143.5 63.5,143.5 71.5,143.5C 71.5,146.167 71.5,148.833 71.5,151.5C 63.5,151.5 55.5,151.5 47.5,151.5C 47.5,148.833 47.5,146.167 47.5,143.5 Z"/></g>
<g><path style="opacity:1" fill="#4c004f" d="M 143.5,143.5 C 146.167,143.5 148.833,143.5 151.5,143.5C 151.5,146.167 151.5,148.833 151.5,151.5C 148.833,151.5 146.167,151.5 143.5,151.5C 143.5,148.833 143.5,146.167 143.5,143.5 Z"/></g>
<g><path style="opacity:1" fill="#4c004f" d="M 183.5,143.5 C 186.167,143.5 188.833,143.5 191.5,143.5C 191.5,146.167 191.5,148.833 191.5,151.5C 191.5,156.833 191.5,162.167 191.5,167.5C 188.833,167.5 186.167,167.5 183.5,167.5C 183.5,164.833 183.5,162.167 183.5,159.5C 183.5,156.833 183.5,154.167 183.5,151.5C 183.5,148.833 183.5,146.167 183.5,143.5 Z"/></g>
<g><path style="opacity:1" fill="#e03a69" d="M 191.5,143.5 C 196.833,143.5 202.167,143.5 207.5,143.5C 207.5,146.167 207.5,148.833 207.5,151.5C 202.167,151.5 196.833,151.5 191.5,151.5C 191.5,148.833 191.5,146.167 191.5,143.5 Z"/></g>
<g><path style="opacity:1" fill="#e03a69" d="M 71.5,151.5 C 95.5,151.5 119.5,151.5 143.5,151.5C 146.167,151.5 148.833,151.5 151.5,151.5C 151.5,154.167 151.5,156.833 151.5,159.5C 124.833,159.5 98.1667,159.5 71.5,159.5C 71.5,156.833 71.5,154.167 71.5,151.5 Z"/></g>
<g><path style="opacity:1" fill="#4c004f" d="M 151.5,151.5 C 154.167,151.5 156.833,151.5 159.5,151.5C 159.5,154.167 159.5,156.833 159.5,159.5C 159.5,162.167 159.5,164.833 159.5,167.5C 156.833,167.5 154.167,167.5 151.5,167.5C 151.5,164.833 151.5,162.167 151.5,159.5C 151.5,156.833 151.5,154.167 151.5,151.5 Z"/></g>
<g><path style="opacity:1" fill="#e03a69" d="M 159.5,151.5 C 167.5,151.5 175.5,151.5 183.5,151.5C 183.5,154.167 183.5,156.833 183.5,159.5C 175.5,159.5 167.5,159.5 159.5,159.5C 159.5,156.833 159.5,154.167 159.5,151.5 Z"/></g>
<g><path style="opacity:1" fill="#dc3567" d="M 39.5,175.5 C 47.5,175.5 55.5,175.5 63.5,175.5C 63.5,178.167 63.5,180.833 63.5,183.5C 68.8333,183.5 74.1667,183.5 79.5,183.5C 79.5,186.167 79.5,188.833 79.5,191.5C 79.5,194.167 79.5,196.833 79.5,199.5C 76.8333,199.5 74.1667,199.5 71.5,199.5C 71.5,196.833 71.5,194.167 71.5,191.5C 66.1667,191.5 60.8333,191.5 55.5,191.5C 55.5,188.833 55.5,186.167 55.5,183.5C 52.8333,183.5 50.1667,183.5 47.5,183.5C 44.8333,183.5 42.1667,183.5 39.5,183.5C 39.5,180.833 39.5,178.167 39.5,175.5 Z"/></g>
<g><path style="opacity:1" fill="#4c004f" d="M 151.5,175.5 C 154.167,175.5 156.833,175.5 159.5,175.5C 159.5,178.167 159.5,180.833 159.5,183.5C 156.833,183.5 154.167,183.5 151.5,183.5C 151.5,180.833 151.5,178.167 151.5,175.5 Z"/></g>
<g><path style="opacity:1" fill="#c01159" d="M 215.5,175.5 C 215.5,178.167 215.5,180.833 215.5,183.5C 212.833,183.5 210.167,183.5 207.5,183.5C 207.5,180.833 207.5,178.167 207.5,175.5C 210.167,175.5 212.833,175.5 215.5,175.5 Z"/></g>
<g><path style="opacity:1" fill="#e36a86" d="M 39.5,183.5 C 42.1667,183.5 44.8333,183.5 47.5,183.5C 47.5,186.167 47.5,188.833 47.5,191.5C 44.8333,191.5 42.1667,191.5 39.5,191.5C 39.5,188.833 39.5,186.167 39.5,183.5 Z"/></g>
<g><path style="opacity:1" fill="#212034" d="M 47.5,183.5 C 50.1667,183.5 52.8333,183.5 55.5,183.5C 55.5,186.167 55.5,188.833 55.5,191.5C 52.8333,191.5 50.1667,191.5 47.5,191.5C 47.5,188.833 47.5,186.167 47.5,183.5 Z"/></g>
<g><path style="opacity:1" fill="#e03a69" d="M 143.5,191.5 C 140.833,191.5 138.167,191.5 135.5,191.5C 135.5,194.167 135.5,196.833 135.5,199.5C 138.167,199.5 140.833,199.5 143.5,199.5C 143.5,202.167 143.5,204.833 143.5,207.5C 138.167,207.5 132.833,207.5 127.5,207.5C 127.5,204.833 127.5,202.167 127.5,199.5C 127.5,196.833 127.5,194.167 127.5,191.5C 127.5,188.833 127.5,186.167 127.5,183.5C 132.833,183.5 138.167,183.5 143.5,183.5C 143.5,186.167 143.5,188.833 143.5,191.5 Z"/></g>
<g><path style="opacity:1" fill="#4c004f" d="M 191.5,183.5 C 191.5,186.167 191.5,188.833 191.5,191.5C 191.5,194.167 191.5,196.833 191.5,199.5C 194.167,199.5 196.833,199.5 199.5,199.5C 199.5,210.167 199.5,220.833 199.5,231.5C 196.833,231.5 194.167,231.5 191.5,231.5C 191.5,223.5 191.5,215.5 191.5,207.5C 188.833,207.5 186.167,207.5 183.5,207.5C 183.5,204.833 183.5,202.167 183.5,199.5C 180.833,199.5 178.167,199.5 175.5,199.5C 175.5,196.833 175.5,194.167 175.5,191.5C 178.167,191.5 180.833,191.5 183.5,191.5C 183.5,188.833 183.5,186.167 183.5,183.5C 186.167,183.5 188.833,183.5 191.5,183.5 Z"/></g>
<g><path style="opacity:1" fill="#c01159" d="M 191.5,183.5 C 196.833,183.5 202.167,183.5 207.5,183.5C 207.5,186.167 207.5,188.833 207.5,191.5C 202.167,191.5 196.833,191.5 191.5,191.5C 191.5,188.833 191.5,186.167 191.5,183.5 Z"/></g>
<g><path style="opacity:1" fill="#e36a86" d="M 207.5,183.5 C 210.167,183.5 212.833,183.5 215.5,183.5C 215.5,199.5 215.5,215.5 215.5,231.5C 212.833,231.5 210.167,231.5 207.5,231.5C 207.5,234.167 207.5,236.833 207.5,239.5C 199.5,239.5 191.5,239.5 183.5,239.5C 183.5,242.167 183.5,244.833 183.5,247.5C 146.167,247.5 108.833,247.5 71.5,247.5C 71.5,244.833 71.5,242.167 71.5,239.5C 63.5,239.5 55.5,239.5 47.5,239.5C 47.5,236.833 47.5,234.167 47.5,231.5C 52.8333,231.5 58.1667,231.5 63.5,231.5C 63.5,228.833 63.5,226.167 63.5,223.5C 66.1667,223.5 68.8333,223.5 71.5,223.5C 71.5,218.167 71.5,212.833 71.5,207.5C 74.1667,207.5 76.8333,207.5 79.5,207.5C 79.5,204.833 79.5,202.167 79.5,199.5C 87.5,199.5 95.5,199.5 103.5,199.5C 103.5,202.167 103.5,204.833 103.5,207.5C 106.167,207.5 108.833,207.5 111.5,207.5C 111.5,210.167 111.5,212.833 111.5,215.5C 114.167,215.5 116.833,215.5 119.5,215.5C 119.5,210.167 119.5,204.833 119.5,199.5C 122.167,199.5 124.833,199.5 127.5,199.5C 127.5,202.167 127.5,204.833 127.5,207.5C 132.833,207.5 138.167,207.5 143.5,207.5C 143.5,210.167 143.5,212.833 143.5,215.5C 146.167,215.5 148.833,215.5 151.5,215.5C 151.5,220.833 151.5,226.167 151.5,231.5C 154.167,231.5 156.833,231.5 159.5,231.5C 159.5,228.833 159.5,226.167 159.5,223.5C 162.167,223.5 164.833,223.5 167.5,223.5C 167.5,220.833 167.5,218.167 167.5,215.5C 164.833,215.5 162.167,215.5 159.5,215.5C 159.5,212.833 159.5,210.167 159.5,207.5C 156.833,207.5 154.167,207.5 151.5,207.5C 151.5,204.833 151.5,202.167 151.5,199.5C 159.5,199.5 167.5,199.5 175.5,199.5C 178.167,199.5 180.833,199.5 183.5,199.5C 183.5,202.167 183.5,204.833 183.5,207.5C 186.167,207.5 188.833,207.5 191.5,207.5C 191.5,215.5 191.5,223.5 191.5,231.5C 194.167,231.5 196.833,231.5 199.5,231.5C 199.5,220.833 199.5,210.167 199.5,199.5C 196.833,199.5 194.167,199.5 191.5,199.5C 191.5,196.833 191.5,194.167 191.5,191.5C 196.833,191.5 202.167,191.5 207.5,191.5C 207.5,188.833 207.5,186.167 207.5,183.5 Z"/></g>
<g><path style="opacity:1" fill="#212034" d="M 39.5,191.5 C 42.1667,191.5 44.8333,191.5 47.5,191.5C 47.5,196.833 47.5,202.167 47.5,207.5C 50.1667,207.5 52.8333,207.5 55.5,207.5C 55.5,210.167 55.5,212.833 55.5,215.5C 52.8333,215.5 50.1667,215.5 47.5,215.5C 47.5,218.167 47.5,220.833 47.5,223.5C 44.8333,223.5 42.1667,223.5 39.5,223.5C 39.5,212.833 39.5,202.167 39.5,191.5 Z"/></g>
<g><path style="opacity:1" fill="#3a6049" d="M 47.5,191.5 C 50.1667,191.5 52.8333,191.5 55.5,191.5C 60.8333,191.5 66.1667,191.5 71.5,191.5C 71.5,194.167 71.5,196.833 71.5,199.5C 71.5,202.167 71.5,204.833 71.5,207.5C 68.8333,207.5 66.1667,207.5 63.5,207.5C 63.5,212.833 63.5,218.167 63.5,223.5C 58.1667,223.5 52.8333,223.5 47.5,223.5C 47.5,220.833 47.5,218.167 47.5,215.5C 50.1667,215.5 52.8333,215.5 55.5,215.5C 55.5,212.833 55.5,210.167 55.5,207.5C 52.8333,207.5 50.1667,207.5 47.5,207.5C 47.5,202.167 47.5,196.833 47.5,191.5 Z"/></g>
<g><path style="opacity:1" fill="#c01159" d="M 79.5,191.5 C 95.5,191.5 111.5,191.5 127.5,191.5C 127.5,194.167 127.5,196.833 127.5,199.5C 124.833,199.5 122.167,199.5 119.5,199.5C 119.5,204.833 119.5,210.167 119.5,215.5C 116.833,215.5 114.167,215.5 111.5,215.5C 111.5,212.833 111.5,210.167 111.5,207.5C 108.833,207.5 106.167,207.5 103.5,207.5C 103.5,204.833 103.5,202.167 103.5,199.5C 95.5,199.5 87.5,199.5 79.5,199.5C 79.5,196.833 79.5,194.167 79.5,191.5 Z"/></g>
<g><path style="opacity:1" fill="#0a001b" d="M 143.5,191.5 C 143.5,194.167 143.5,196.833 143.5,199.5C 140.833,199.5 138.167,199.5 135.5,199.5C 135.5,196.833 135.5,194.167 135.5,191.5C 138.167,191.5 140.833,191.5 143.5,191.5 Z"/></g>
<g><path style="opacity:1" fill="#c71b5d" d="M 143.5,191.5 C 154.167,191.5 164.833,191.5 175.5,191.5C 175.5,194.167 175.5,196.833 175.5,199.5C 167.5,199.5 159.5,199.5 151.5,199.5C 148.833,199.5 146.167,199.5 143.5,199.5C 143.5,196.833 143.5,194.167 143.5,191.5 Z"/></g>
<g><path style="opacity:1" fill="#212034" d="M 71.5,199.5 C 74.1667,199.5 76.8333,199.5 79.5,199.5C 79.5,202.167 79.5,204.833 79.5,207.5C 76.8333,207.5 74.1667,207.5 71.5,207.5C 71.5,204.833 71.5,202.167 71.5,199.5 Z"/></g>
<g><path style="opacity:1" fill="#0a001b" d="M 143.5,199.5 C 146.167,199.5 148.833,199.5 151.5,199.5C 151.5,202.167 151.5,204.833 151.5,207.5C 154.167,207.5 156.833,207.5 159.5,207.5C 159.5,210.167 159.5,212.833 159.5,215.5C 162.167,215.5 164.833,215.5 167.5,215.5C 167.5,218.167 167.5,220.833 167.5,223.5C 164.833,223.5 162.167,223.5 159.5,223.5C 159.5,226.167 159.5,228.833 159.5,231.5C 156.833,231.5 154.167,231.5 151.5,231.5C 151.5,226.167 151.5,220.833 151.5,215.5C 148.833,215.5 146.167,215.5 143.5,215.5C 143.5,212.833 143.5,210.167 143.5,207.5C 143.5,204.833 143.5,202.167 143.5,199.5 Z"/></g>
<g><path style="opacity:1" fill="#212034" d="M 71.5,207.5 C 71.5,212.833 71.5,218.167 71.5,223.5C 68.8333,223.5 66.1667,223.5 63.5,223.5C 63.5,218.167 63.5,212.833 63.5,207.5C 66.1667,207.5 68.8333,207.5 71.5,207.5 Z"/></g>
<g><path style="opacity:1" fill="#c01159" d="M 119.5,215.5 C 122.167,215.5 124.833,215.5 127.5,215.5C 127.5,220.833 127.5,226.167 127.5,231.5C 124.833,231.5 122.167,231.5 119.5,231.5C 119.5,226.167 119.5,220.833 119.5,215.5 Z"/></g>
<g><path style="opacity:1" fill="#0a001b" d="M 143.5,215.5 C 143.5,220.833 143.5,226.167 143.5,231.5C 140.833,231.5 138.167,231.5 135.5,231.5C 135.5,226.167 135.5,220.833 135.5,215.5C 138.167,215.5 140.833,215.5 143.5,215.5 Z"/></g>
<g><path style="opacity:1" fill="#0a001b" d="M 31.5,223.5 C 31.5,228.833 31.5,234.167 31.5,239.5C 28.8333,239.5 26.1667,239.5 23.5,239.5C 23.5,234.167 23.5,228.833 23.5,223.5C 26.1667,223.5 28.8333,223.5 31.5,223.5 Z"/></g>
<g><path style="opacity:1" fill="#212034" d="M 31.5,223.5 C 34.1667,223.5 36.8333,223.5 39.5,223.5C 39.5,226.167 39.5,228.833 39.5,231.5C 42.1667,231.5 44.8333,231.5 47.5,231.5C 47.5,234.167 47.5,236.833 47.5,239.5C 42.1667,239.5 36.8333,239.5 31.5,239.5C 31.5,234.167 31.5,228.833 31.5,223.5 Z"/></g>
<g><path style="opacity:1" fill="#3a6049" d="M 39.5,223.5 C 42.1667,223.5 44.8333,223.5 47.5,223.5C 47.5,226.167 47.5,228.833 47.5,231.5C 44.8333,231.5 42.1667,231.5 39.5,231.5C 39.5,228.833 39.5,226.167 39.5,223.5 Z"/></g>
<g><path style="opacity:1" fill="#212034" d="M 47.5,223.5 C 52.8333,223.5 58.1667,223.5 63.5,223.5C 63.5,226.167 63.5,228.833 63.5,231.5C 58.1667,231.5 52.8333,231.5 47.5,231.5C 47.5,228.833 47.5,226.167 47.5,223.5 Z"/></g>
<g><path style="opacity:1" fill="#0a001b" d="M 167.5,223.5 C 170.167,223.5 172.833,223.5 175.5,223.5C 175.5,226.167 175.5,228.833 175.5,231.5C 172.833,231.5 170.167,231.5 167.5,231.5C 167.5,228.833 167.5,226.167 167.5,223.5 Z"/></g>
<g><path style="opacity:1" fill="#0a001b" d="M 215.5,231.5 C 215.5,234.167 215.5,236.833 215.5,239.5C 212.833,239.5 210.167,239.5 207.5,239.5C 207.5,236.833 207.5,234.167 207.5,231.5C 210.167,231.5 212.833,231.5 215.5,231.5 Z"/></g>
<g><path style="opacity:1" fill="#0a001b" d="M 31.5,239.5 C 36.8333,239.5 42.1667,239.5 47.5,239.5C 55.5,239.5 63.5,239.5 71.5,239.5C 71.5,242.167 71.5,244.833 71.5,247.5C 58.1667,247.5 44.8333,247.5 31.5,247.5C 31.5,244.833 31.5,242.167 31.5,239.5 Z"/></g>
<g><path style="opacity:1" fill="#0a001b" d="M 207.5,239.5 C 207.5,242.167 207.5,244.833 207.5,247.5C 199.5,247.5 191.5,247.5 183.5,247.5C 183.5,244.833 183.5,242.167 183.5,239.5C 191.5,239.5 199.5,239.5 207.5,239.5 Z"/></g>
<g><path style="opacity:1" fill="#0a001b" d="M 71.5,247.5 C 108.833,247.5 146.167,247.5 183.5,247.5C 183.5,250.167 183.5,252.833 183.5,255.5C 146.167,255.5 108.833,255.5 71.5,255.5C 71.5,252.833 71.5,250.167 71.5,247.5 Z"/></g>
</svg>
